<svg width="42" height="44" viewBox="0 0 42 44" fill="none" xmlns="http://www.w3.org/2000/svg">
<path d="M33 2V6M9 2V6" stroke="#141B34" stroke-width="3" stroke-linecap="round" stroke-linejoin="round"/>
<path d="M39.9995 21C39.9914 13.2673 39.8534 9.25605 37.4958 6.70728C34.9915 4 30.961 4 22.9 4H19.1C11.039 4 7.00847 4 4.50424 6.70728C2 9.41457 2 13.7719 2 22.4865V23.5135C2 32.2281 2 36.5854 4.50424 39.2927C6.90265 41.8856 10.6093 41.9952 18 41.9998" stroke="#141B34" stroke-width="3" stroke-linecap="round" stroke-linejoin="round"/>
<path d="M3 14H39" stroke="#141B34" stroke-width="3" stroke-linecap="round" stroke-linejoin="round"/>
<path d="M32 39.4286V42M32 39.4286C29.6864 39.4286 27.6481 38.2922 26.4526 36.5666M32 39.4286C34.3136 39.4286 36.3519 38.2922 37.5474 36.5666M32 26.5714C34.3137 26.5714 36.3522 27.708 37.5476 29.4338M32 26.5714C29.6863 26.5714 27.6478 27.708 26.4524 29.4338M32 26.5714V24M40 27.8571L37.5476 29.4338M24.0008 38.1429L26.4526 36.5666M24 27.8571L26.4524 29.4338M39.9992 38.1429L37.5474 36.5666M37.5476 29.4338C38.2545 30.4542 38.6667 31.6807 38.6667 33C38.6667 34.3195 38.2544 35.5461 37.5474 36.5666M26.4524 29.4338C25.7455 30.4542 25.3333 31.6807 25.3333 33C25.3333 34.3195 25.7456 35.5461 26.4526 36.5666" stroke="#141B34" stroke-width="3" stroke-linecap="round"/>
</svg>
