<svg width="18" height="18" viewBox="0 0 18 18" fill="none" xmlns="http://www.w3.org/2000/svg">
<path d="M15.8595 6.43189L10.197 1.83064C9.50322 1.26739 8.49672 1.26739 7.80297 1.83064L2.14122 6.43114C1.94247 6.59239 1.82922 6.83089 1.82922 7.08589V15.7431C1.82922 16.2081 2.20797 16.5906 2.67297 16.5906H6.46947C6.93447 16.5906 7.31322 16.2081 7.31322 15.7431V10.2636H10.6875V15.7431C10.6875 16.2081 11.0662 16.5906 11.5312 16.5906H15.3277C15.7927 16.5906 16.1715 16.2081 16.1715 15.7431V7.08589C16.1707 6.83089 16.0575 6.59239 15.8595 6.43189ZM15.327 15.7476H11.5305V10.2599C11.5305 9.79489 11.1517 9.42064 10.6867 9.42064H7.31247C6.84747 9.42064 6.46872 9.79489 6.46872 10.2599V15.7476H2.67297V7.08589L8.33547 2.48539C8.72022 2.17189 9.28047 2.17264 9.66522 2.48539L15.3277 7.08589L15.327 15.7476Z" fill="#FA7753"/>
</svg>
