<svg width="16" height="16" viewBox="0 0 16 16" fill="none" xmlns="http://www.w3.org/2000/svg">
<g clip-path="url(#clip0_7_2693)">
<path d="M14.0267 5.01329H6.98667C6.63111 5.01329 6.29333 5.11995 5.97333 5.33329C5.90222 4.79995 5.68 4.3644 5.30667 4.02662C4.93333 3.68884 4.49778 3.51995 4 3.51995C3.60889 3.51995 3.25333 3.60884 2.93333 3.78662V2.98662C2.93333 2.8444 2.88889 2.72884 2.8 2.63995C2.71111 2.55106 2.59556 2.50662 2.45333 2.50662H0.48C0.337778 2.50662 0.222222 2.55106 0.133333 2.63995C0.0444444 2.72884 0 2.8444 0 2.98662V13.0133C0 13.1555 0.0444444 13.2711 0.133333 13.36C0.222222 13.4488 0.337778 13.4933 0.48 13.4933H2.45333C2.59556 13.4933 2.71111 13.4488 2.8 13.36C2.88889 13.2711 2.93333 13.1555 2.93333 13.0133V11.4666H13.0667V13.0133C13.0667 13.1555 13.1111 13.2711 13.2 13.36C13.2889 13.4488 13.4044 13.4933 13.5467 13.4933H15.52C15.6622 13.4933 15.7778 13.4488 15.8667 13.36C15.9556 13.2711 16 13.1555 16 13.0133V6.98662C16 6.45329 15.8044 5.99106 15.4133 5.59995C15.0222 5.20884 14.56 5.01329 14.0267 5.01329ZM4 4.42662C4.28444 4.42662 4.52445 4.53329 4.72 4.74662C4.91556 4.95995 5.01333 5.20884 5.01333 5.49329C5.01333 5.77773 4.91556 6.01773 4.72 6.21329C4.52445 6.40884 4.28444 6.50662 4 6.50662C3.71556 6.50662 3.46667 6.40884 3.25333 6.21329C3.04 6.01773 2.93333 5.77773 2.93333 5.49329C2.93333 5.20884 3.04 4.95995 3.25333 4.74662C3.46667 4.53329 3.71556 4.42662 4 4.42662ZM2.93333 7.14662C3.25333 7.35995 3.6 7.46662 3.97333 7.46662C4.34667 7.46662 4.69333 7.35995 5.01333 7.14662V8.53329H2.93333V7.14662ZM15.04 12.5333H13.9733V10.9866C13.9733 10.88 13.9289 10.7822 13.84 10.6933C13.7511 10.6044 13.6533 10.56 13.5467 10.56H2.45333C2.34667 10.56 2.24889 10.6044 2.16 10.6933C2.07111 10.7822 2.02667 10.88 2.02667 10.9866V12.5333H0.96V3.46662H2.02667V9.01329C2.02667 9.11995 2.07111 9.22662 2.16 9.33329C2.24889 9.43995 2.34667 9.49329 2.45333 9.49329H15.04V12.5333ZM15.04 8.53329H5.97333V6.98662C5.97333 6.70217 6.07111 6.46217 6.26667 6.26662C6.46222 6.07106 6.70222 5.97329 6.98667 5.97329H14.0267C14.3111 5.97329 14.5511 6.07106 14.7467 6.26662C14.9422 6.46217 15.04 6.70217 15.04 6.98662V8.53329Z" fill="#FA7652"/>
</g>
<defs>
<clipPath id="clip0_7_2693">
<rect width="16" height="16" fill="white" transform="matrix(1 0 0 -1 0 16)"/>
</clipPath>
</defs>
</svg>
