<svg width="21" height="20" viewBox="0 0 21 20" fill="none" xmlns="http://www.w3.org/2000/svg">
<path d="M18.5399 15.8668V7.36009C18.5399 6.08897 18.2099 4.90342 17.5499 3.80342C16.8899 2.70342 16.0099 1.83564 14.9099 1.20008C13.8099 0.564529 12.6244 0.246752 11.3533 0.246752H10.0333C8.76216 0.246752 7.57661 0.564529 6.47661 1.20008C5.37661 1.83564 4.49661 2.70342 3.83661 3.80342C3.17661 4.90342 2.84661 6.08897 2.84661 7.36009V15.8668H0.939941V17.1868H5.48661V19.7534H6.80661V17.1868H14.5799V19.7534H15.8999V17.1868H20.4466V15.8668H18.5399ZM17.2199 7.36009V8.68009H11.3533V1.49342C12.4288 1.49342 13.4066 1.76231 14.2866 2.30009C15.1666 2.83786 15.8755 3.55897 16.4133 4.46342C16.9511 5.36786 17.2199 6.33342 17.2199 7.36009ZM4.16661 7.36009C4.16661 6.33342 4.4355 5.36786 4.97327 4.46342C5.51105 3.55897 6.21994 2.83786 7.09994 2.30009C7.97994 1.76231 8.95772 1.49342 10.0333 1.49342V8.68009H4.16661V7.36009ZM4.16661 10.0001H10.0333V15.8668H4.16661V10.0001ZM11.3533 15.8668V10.0001H17.2199V15.8668H11.3533Z" fill="#181A20"/>
</svg>
