<svg width="21" height="22" viewBox="0 0 21 22" fill="none" xmlns="http://www.w3.org/2000/svg">
<path d="M20.4421 8.50676L12.9621 1.10009C12.2776 0.366758 11.4221 9.15527e-05 10.3954 9.15527e-05C9.36873 9.15527e-05 8.51317 0.366758 7.82873 1.10009L0.348728 8.50676C0.202061 8.65343 0.14095 8.82454 0.165394 9.02009C0.189839 9.21565 0.263172 9.38676 0.385394 9.53343C0.507617 9.68009 0.666505 9.75342 0.862061 9.75342C1.05762 9.75342 1.22873 9.68009 1.37539 9.53343L8.85539 2.12676C9.29539 1.68676 9.80873 1.46676 10.3954 1.46676C10.9821 1.46676 11.4954 1.68676 11.9354 2.12676L19.4154 9.53343C19.611 9.77787 19.8554 9.86343 20.1487 9.79009C20.4421 9.71676 20.6254 9.53343 20.6987 9.24009C20.7721 8.94676 20.6865 8.70231 20.4421 8.50676ZM10.3954 17.6001H5.99539C5.40873 17.6001 4.89539 17.3801 4.45539 16.9401C4.01539 16.5001 3.79539 15.9868 3.79539 15.4001V10.4868C3.79539 10.3401 3.72206 10.1934 3.57539 10.0468C3.42873 9.90009 3.25762 9.82676 3.06206 9.82676C2.86651 9.82676 2.69539 9.90009 2.54873 10.0468C2.40206 10.1934 2.32873 10.3401 2.32873 10.4868V15.4001C2.32873 16.4268 2.68317 17.2945 3.39206 18.0034C4.10095 18.7123 4.96873 19.0668 5.99539 19.0668H9.66206V21.2668C9.66206 21.4623 9.73539 21.6212 9.88206 21.7434C10.0287 21.8656 10.1998 21.9268 10.3954 21.9268C10.5909 21.9268 10.7621 21.8656 10.9087 21.7434C11.0554 21.6212 11.1287 21.4623 11.1287 21.2668V18.3334C11.1287 18.1379 11.0554 17.9668 10.9087 17.8201C10.7621 17.6734 10.5909 17.6001 10.3954 17.6001ZM17.7287 9.75342C17.5332 9.75342 17.3621 9.82676 17.2154 9.97342C17.0687 10.1201 16.9954 10.2912 16.9954 10.4868V15.4001C16.9954 15.9868 16.7754 16.5001 16.3354 16.9401C15.8954 17.3801 15.3821 17.6001 14.7954 17.6001H13.3287C13.0354 17.5512 12.8032 17.6612 12.6321 17.9301C12.4609 18.199 12.4609 18.4679 12.6321 18.7368C12.8032 19.0056 13.0354 19.1156 13.3287 19.0668H14.7954C15.8221 19.0668 16.6898 18.7123 17.3987 18.0034C18.1076 17.2945 18.4621 16.4268 18.4621 15.4001V10.4868C18.4621 10.2912 18.3887 10.1201 18.2421 9.97342C18.0954 9.82676 17.9243 9.75342 17.7287 9.75342ZM14.1354 11.0001C14.1354 9.97342 13.7687 9.09342 13.0354 8.36009C12.3021 7.62676 11.4221 7.26009 10.3954 7.26009C9.36873 7.26009 8.48873 7.62676 7.75539 8.36009C7.02206 9.09342 6.65539 9.97342 6.65539 11.0001C6.65539 12.0268 7.02206 12.9068 7.75539 13.6401C8.48873 14.3734 9.36873 14.7401 10.3954 14.7401C11.4221 14.7401 12.3021 14.3734 13.0354 13.6401C13.7687 12.9068 14.1354 12.0268 14.1354 11.0001ZM8.26873 11.0001C8.26873 10.4134 8.47651 9.91231 8.89206 9.49676C9.30762 9.0812 9.80873 8.87342 10.3954 8.87342C10.9821 8.87342 11.4832 9.0812 11.8987 9.49676C12.3143 9.91231 12.5221 10.4134 12.5221 11.0001C12.5221 11.5868 12.3143 12.0879 11.8987 12.5034C11.4832 12.919 10.9821 13.1268 10.3954 13.1268C9.80873 13.1268 9.30762 12.919 8.89206 12.5034C8.47651 12.0879 8.26873 11.5868 8.26873 11.0001Z" fill="#181A20"/>
</svg>
