<svg width="19" height="20" viewBox="0 0 19 20" fill="none" xmlns="http://www.w3.org/2000/svg">
<path d="M17.5131 4.86675L11.6464 0.760086C11.1086 0.417864 10.4975 0.246752 9.81306 0.246752C9.12862 0.246752 8.5175 0.417864 7.97973 0.760086L2.11306 4.86675C1.67306 5.16009 1.33084 5.53897 1.08639 6.00342C0.841949 6.46786 0.719727 6.96897 0.719727 7.50675V16.5268C0.719727 17.4068 1.0375 18.1645 1.67306 18.8001C2.30862 19.4356 3.06639 19.7534 3.94639 19.7534H15.6797C16.5597 19.7534 17.3175 19.4356 17.9531 18.8001C18.5886 18.1645 18.9064 17.4068 18.9064 16.5268V7.50675C18.9064 6.96897 18.7842 6.46786 18.5397 6.00342C18.2953 5.53897 17.9531 5.16009 17.5131 4.86675ZM2.84639 5.89342L8.71306 1.86008C9.00639 1.61564 9.36084 1.49342 9.77639 1.49342C10.1919 1.49342 10.5708 1.61564 10.9131 1.86008L16.7064 5.89342C16.9997 6.08897 17.2197 6.33342 17.3664 6.62675C17.5131 6.92008 17.5864 7.21342 17.5864 7.50675V15.2068H2.03973V7.50675C2.03973 7.16453 2.11306 6.85897 2.25973 6.59009C2.40639 6.3212 2.60195 6.08897 2.84639 5.89342ZM16.9997 17.9201C16.6575 18.3112 16.2175 18.5068 15.6797 18.5068H3.94639C3.40862 18.5068 2.95639 18.3112 2.58973 17.9201C2.22306 17.529 2.03973 17.0645 2.03973 16.5268H17.5864C17.5864 17.0645 17.3908 17.529 16.9997 17.9201ZM9.22639 12.6401C9.22639 12.8356 9.2875 12.9945 9.40973 13.1168C9.53195 13.239 9.67862 13.3001 9.84973 13.3001C10.0208 13.3001 10.1675 13.239 10.2897 13.1168C10.4119 12.9945 10.4731 12.8356 10.4731 12.6401C10.4731 12.4445 10.4119 12.2856 10.2897 12.1634C10.1675 12.0412 10.0208 11.9801 9.84973 11.9801C9.67862 11.9801 9.53195 12.0412 9.40973 12.1634C9.2875 12.2856 9.22639 12.4445 9.22639 12.6401ZM9.88639 9.41342C9.29973 9.41342 8.74973 9.56009 8.23639 9.85342C7.72306 10.1468 7.31973 10.5379 7.02639 11.0268L8.19973 11.6868C8.34639 11.3445 8.56639 11.0879 8.85973 10.9168C9.15306 10.7456 9.48306 10.6601 9.84973 10.6601C10.2164 10.6601 10.5464 10.7456 10.8397 10.9168C11.1331 11.0879 11.3775 11.3445 11.5731 11.6868L12.6731 11.0268C12.3797 10.5379 11.9764 10.1468 11.4631 9.85342C10.9497 9.56009 10.4242 9.41342 9.88639 9.41342ZM9.88639 8.09342C10.6686 8.09342 11.4142 8.3012 12.1231 8.71675C12.8319 9.13231 13.3819 9.68231 13.7731 10.3668L14.9464 9.70675C14.4086 8.82675 13.6875 8.11786 12.7831 7.58008C11.8786 7.04231 10.9008 6.77342 9.84973 6.77342C8.79862 6.77342 7.82084 7.04231 6.91639 7.58008C6.01195 8.11786 5.31528 8.82675 4.82639 9.70675L5.92639 10.3668C6.3175 9.68231 6.8675 9.13231 7.57639 8.71675C8.28528 8.3012 9.05528 8.09342 9.88639 8.09342Z" fill="#181A20"/>
</svg>
