<svg width="20" height="20" viewBox="0 0 20 20" fill="none" xmlns="http://www.w3.org/2000/svg">
<path d="M18.2034 4.79342L10.3567 0.320086C10.1612 0.173418 9.96561 0.173418 9.77006 0.320086L1.92339 4.79342C1.4345 5.08675 1.04339 5.47786 0.750059 5.96675C0.456725 6.45564 0.310059 6.99342 0.310059 7.58008V16.5268C0.310059 17.4068 0.627836 18.1645 1.26339 18.8001C1.89895 19.4356 2.65673 19.7534 3.53673 19.7534H16.5901C17.4701 19.7534 18.2278 19.4356 18.8634 18.8001C19.4989 18.1645 19.8167 17.4068 19.8167 16.5268V7.58008C19.8167 6.99342 19.6701 6.45564 19.3767 5.96675C19.0834 5.47786 18.6923 5.08675 18.2034 4.79342ZM10.7234 13.2268C10.7234 12.5423 10.9801 11.9434 11.4934 11.4301C12.0067 10.9168 12.6056 10.6601 13.2901 10.6601C13.4856 10.6601 13.6445 10.7212 13.7667 10.8434C13.8889 10.9656 13.9501 11.1245 13.9501 11.3201C13.9501 12.0534 13.6934 12.6645 13.1801 13.1534C12.6667 13.6423 12.0678 13.8868 11.3834 13.8868H10.7234V13.2268ZM9.40339 13.8868H8.74339C8.05895 13.8868 7.46006 13.6423 6.94672 13.1534C6.43339 12.6645 6.17672 12.0534 6.17672 11.3201C6.17672 11.1245 6.23784 10.9656 6.36006 10.8434C6.48228 10.7212 6.64117 10.6601 6.83673 10.6601C7.52117 10.6601 8.12006 10.9168 8.63339 11.4301C9.14672 11.9434 9.40339 12.5423 9.40339 13.2268V13.8868ZM18.5701 16.5268C18.5701 17.0645 18.3745 17.529 17.9834 17.9201C17.5923 18.3112 17.1278 18.5068 16.5901 18.5068H10.7234V15.2068H11.3834C12.4589 15.2068 13.3756 14.8279 14.1334 14.0701C14.8912 13.3123 15.2701 12.3956 15.2701 11.3201C15.2701 10.7823 15.0745 10.3179 14.6834 9.92675C14.2923 9.53564 13.8278 9.34009 13.2901 9.34009C12.2145 9.34009 11.3101 9.7312 10.5767 10.5134C10.3812 10.709 10.2101 10.9045 10.0634 11.1001C9.67228 10.5623 9.19561 10.1345 8.63339 9.81675C8.07117 9.49897 7.44784 9.34009 6.76339 9.34009C6.22561 9.34009 5.77339 9.53564 5.40672 9.92675C5.04006 10.3179 4.85673 10.7823 4.85673 11.3201C4.85673 12.3956 5.23561 13.3123 5.99339 14.0701C6.75117 14.8279 7.66784 15.2068 8.74339 15.2068H9.40339V18.5068H3.53673C2.99895 18.5068 2.5345 18.3112 2.14339 17.9201C1.75228 17.529 1.55673 17.0645 1.55673 16.5268V7.58008C1.55673 7.23786 1.6545 6.92008 1.85006 6.62675C2.04561 6.33342 2.29006 6.08897 2.58339 5.89342L10.0634 1.64009L17.5434 5.89342C17.8367 6.08897 18.0812 6.33342 18.2767 6.62675C18.4723 6.92008 18.5701 7.23786 18.5701 7.58008V16.5268Z" fill="#181A20"/>
</svg>
