<svg width="61" height="60" viewBox="0 0 61 60" fill="none" xmlns="http://www.w3.org/2000/svg">
<g clip-path="url(#clip0_11_325)">
<path d="M59.3305 43.4001L57.5308 41.8001V34.8001C57.5308 33.6001 57.0975 32.5668 56.231 31.7001C55.3645 30.8334 54.3646 30.4001 53.2315 30.4001C52.0983 30.4001 51.1318 30.7334 50.332 31.4001C49.5321 32.0668 48.9989 32.9334 48.7322 34.0001L47.1325 32.6001C46.3326 31.8001 45.3328 31.4001 44.133 31.4001C42.9332 31.4001 41.8667 31.8001 40.9335 32.6001L28.7356 43.4001C28.4689 43.6668 28.3356 44.0001 28.3356 44.4001C28.3356 44.8001 28.4356 45.1334 28.6356 45.4001C28.8356 45.6668 29.1355 45.8001 29.5354 45.8001C29.9354 45.8001 30.2686 45.7334 30.5353 45.6001V55.4001C30.5353 56.6001 30.9352 57.6001 31.7351 58.4001C32.5349 59.2001 33.4681 59.6001 34.5346 59.6001H53.5314C54.7312 59.6001 55.6977 59.2001 56.431 58.4001C57.1642 57.6001 57.5308 56.6001 57.5308 55.4001V45.6001C57.9307 45.7334 58.2973 45.8001 58.6306 45.8001C58.9639 45.8001 59.2638 45.6334 59.5304 45.3001C59.7971 44.9668 59.897 44.6334 59.8304 44.3001C59.7637 43.9668 59.5971 43.6668 59.3305 43.4001ZM46.5326 56.8001H41.9334V53.4001C41.9334 52.8668 42.1333 52.4001 42.5333 52.0001C42.9332 51.6001 43.3998 51.4001 43.933 51.4001H44.5329C45.0662 51.4001 45.5328 51.6001 45.9327 52.0001C46.3326 52.4001 46.5326 52.8668 46.5326 53.4001V56.8001ZM54.7312 55.4001C54.7312 55.8001 54.6313 56.1334 54.4313 56.4001C54.2313 56.6668 53.9314 56.8001 53.5314 56.8001H49.3321V53.4001C49.3321 52.0668 48.8655 50.9334 47.9324 50.0001C46.9992 49.0668 45.866 48.6001 44.5329 48.6001H43.933C42.5999 48.6001 41.4668 49.0668 40.5336 50.0001C39.6004 50.9334 39.1338 52.0668 39.1338 53.4001V56.8001H34.5346C34.268 56.8001 34.0014 56.6668 33.7347 56.4001C33.4681 56.1334 33.3348 55.8001 33.3348 55.4001V43.0001L42.7332 34.8001C43.1332 34.4001 43.5664 34.2001 44.033 34.2001C44.4996 34.2001 44.9329 34.4001 45.3328 34.8001L54.7312 43.0001V55.4001ZM54.7312 34.8001V39.4001L51.5318 36.4001V34.8001C51.5318 34.4001 51.6651 34.0334 51.9317 33.7001C52.1983 33.3668 52.5649 33.1668 53.0315 33.1001C53.4981 33.0334 53.898 33.1668 54.2313 33.5001C54.5646 33.8334 54.7312 34.2668 54.7312 34.8001ZM44.133 37.6001C42.9332 37.6001 41.9334 38.0334 41.1335 38.9001C40.3336 39.7668 39.9337 40.7668 39.9337 41.9001C39.9337 43.0334 40.3336 44.0001 41.1335 44.8001C41.9334 45.6001 42.8999 46.0001 44.033 46.0001C45.1662 46.0001 46.166 45.6001 47.0325 44.8001C47.899 44.0001 48.3323 43.0334 48.3323 41.9001C48.3323 40.7668 47.899 39.7668 47.0325 38.9001C46.166 38.0334 45.1995 37.6001 44.133 37.6001ZM45.3328 41.8001C45.3328 42.2001 45.2328 42.5334 45.0329 42.8001C44.8329 43.0668 44.5329 43.2001 44.133 43.2001C43.7331 43.2001 43.3998 43.0668 43.1332 42.8001C42.8665 42.5334 42.7332 42.2001 42.7332 41.8001C42.7332 41.4001 42.8665 41.0668 43.1332 40.8001C43.3998 40.5334 43.7331 40.4001 44.133 40.4001C44.5329 40.4001 44.8329 40.5334 45.0329 40.8001C45.2328 41.0668 45.3328 41.4001 45.3328 41.8001ZM25.936 56.6001H8.139C6.9392 56.6001 5.87271 56.1668 4.93953 55.3001C4.00636 54.4334 3.53977 53.4001 3.53977 52.2001V7.8001C3.53977 6.6001 4.00636 5.53343 4.93953 4.6001C5.87271 3.66676 6.9392 3.2001 8.139 3.2001H48.7322C50.0653 3.2001 51.1652 3.66676 52.0317 4.6001C52.8982 5.53343 53.3315 6.6001 53.3315 7.8001V25.6001C53.3315 26.0001 53.4648 26.3334 53.7314 26.6001C53.998 26.8668 54.3313 27.0001 54.7312 27.0001C55.1312 27.0001 55.4644 26.8668 55.7311 26.6001C55.9977 26.3334 56.131 26.0001 56.131 25.6001V7.8001C56.131 5.8001 55.3978 4.06676 53.9314 2.6001C52.4649 1.13343 50.7319 0.400097 48.7322 0.400097H8.139C6.13933 0.400097 4.40629 1.13343 2.93987 2.6001C1.47345 4.06676 0.740234 5.8001 0.740234 7.8001V52.2001C0.740234 54.2001 1.47345 55.9334 2.93987 57.4001C4.40629 58.8668 6.13933 59.6001 8.139 59.6001H25.936C26.336 59.6001 26.7026 59.4334 27.0359 59.1001C27.3691 58.7668 27.5358 58.4334 27.5358 58.1001C27.5358 57.7668 27.3691 57.4334 27.0359 57.1001C26.7026 56.7668 26.336 56.6001 25.936 56.6001ZM43.3331 14.6001C43.3331 14.2001 43.1998 13.8668 42.9332 13.6001C42.6666 13.3334 42.3333 13.2001 41.9334 13.2001H14.138C13.7381 13.2001 13.4048 13.3334 13.1382 13.6001C12.8715 13.8668 12.7382 14.2001 12.7382 14.6001C12.7382 15.0001 12.8715 15.3334 13.1382 15.6001C13.4048 15.8668 13.7381 16.0001 14.138 16.0001H41.9334C42.3333 16.0001 42.6666 15.8668 42.9332 15.6001C43.1998 15.3334 43.3331 15.0001 43.3331 14.6001ZM36.5343 25.4001C36.5343 25.1334 36.401 24.8334 36.1343 24.5001C35.8677 24.1668 35.5344 24.0001 35.1345 24.0001H14.138C13.7381 24.0001 13.4048 24.1668 13.1382 24.5001C12.8715 24.8334 12.7382 25.1668 12.7382 25.5001C12.7382 25.8334 12.8715 26.1668 13.1382 26.5001C13.4048 26.8334 13.7381 27.0001 14.138 27.0001H35.1345C35.5344 27.0001 35.8677 26.8334 36.1343 26.5001C36.401 26.1668 36.5343 25.8001 36.5343 25.4001ZM14.138 35.0001C13.7381 35.0001 13.4048 35.1334 13.1382 35.4001C12.8715 35.6668 12.7382 36.0001 12.7382 36.4001C12.7382 36.8001 12.8715 37.1334 13.1382 37.4001C13.4048 37.6668 13.7381 37.8001 14.138 37.8001H22.7366C23.0032 37.8001 23.3031 37.6668 23.6364 37.4001C23.9697 37.1334 24.1363 36.8001 24.1363 36.4001C24.1363 36.0001 23.9697 35.6668 23.6364 35.4001C23.3031 35.1334 23.0032 35.0001 22.7366 35.0001H14.138Z" fill="#40A09A"/>
</g>
<defs>
<clipPath id="clip0_11_325">
<rect width="60.01" height="60" fill="white" transform="matrix(1 0 0 -1 0.330078 60)"/>
</clipPath>
</defs>
</svg>
