<svg width="57" height="58" viewBox="0 0 57 58" fill="none" xmlns="http://www.w3.org/2000/svg">
<path d="M16.4604 42.2C16.4604 41.6666 16.6604 41.2 17.0604 40.8C17.4604 40.4 17.8604 40.2 18.2605 40.2H39.0605C39.4604 40.2 39.8605 40.4 40.2604 40.8C40.6604 41.2 40.8605 41.6666 40.8605 42.2C40.8605 42.7333 40.6604 43.1666 40.2604 43.5C39.8605 43.8333 39.4604 44 39.0605 44H18.2605C17.8604 44 17.4604 43.8333 17.0604 43.5C16.6604 43.1666 16.4604 42.7333 16.4604 42.2ZM36.6604 3.59995C34.3938 1.73328 31.7271 0.79995 28.6604 0.79995C25.5938 0.79995 22.9271 1.73328 20.6604 3.59995L5.66045 15.2C4.06045 16.5333 2.79378 18.0666 1.86045 19.7999C0.927116 21.5333 0.460449 23.4 0.460449 25.4V44.2C0.460449 46.4666 1.06045 48.6 2.26045 50.6C3.46045 52.6 5.06045 54.2 7.06045 55.4C9.06045 56.6 11.2604 57.2 13.6604 57.2H43.6604C46.0605 57.2 48.2604 56.6 50.2604 55.4C52.2604 54.2 53.8605 52.6 55.0605 50.6C56.2604 48.6 56.8605 46.4666 56.8605 44.2V25.4C56.8605 23.4 56.3938 21.5333 55.4604 19.7999C54.5271 18.0666 53.2604 16.5333 51.6604 15.2L36.6604 3.59995ZM22.8604 6.59995C24.5938 5.26662 26.5271 4.59995 28.6604 4.59995C30.7938 4.59995 32.7271 5.26662 34.4604 6.59995L49.4604 18.2C50.5271 19.1333 51.3938 20.2333 52.0605 21.5C52.7271 22.7666 53.0605 24.0666 53.0605 25.4V44.2C53.0605 46.7333 52.1271 48.9 50.2604 50.7C48.3938 52.5 46.1938 53.4 43.6604 53.4H13.6604C11.1271 53.4 8.92712 52.5 7.06045 50.7C5.19378 48.9 4.26045 46.7333 4.26045 44.2V25.4C4.26045 24.0666 4.59378 22.7666 5.26045 21.5C5.92712 20.2333 6.79378 19.1333 7.86045 18.2L22.8604 6.59995Z" fill="#40A09A"/>
</svg>
