<svg width="16" height="16" viewBox="0 0 16 16" fill="none" xmlns="http://www.w3.org/2000/svg">
<g clip-path="url(#clip0_7_2701)">
<path d="M16 8.10662C16 7.7155 15.8667 7.38661 15.6 7.11995C15.3333 6.85328 15.0044 6.71995 14.6133 6.71995H2.50667V2.39995C2.50667 2.04439 2.63111 1.74217 2.88 1.49328C3.05778 1.3155 3.26222 1.20884 3.49333 1.17328C3.72444 1.13772 3.96444 1.1555 4.21333 1.22661C3.89333 1.72439 3.76889 2.2755 3.84 2.87995C3.91111 3.48439 4.16 3.99995 4.58667 4.42661L4.69333 4.58661C4.8 4.65773 4.91556 4.69328 5.04 4.69328C5.16444 4.69328 5.26222 4.65773 5.33333 4.58661L8.37333 1.54661C8.48 1.43995 8.53333 1.32439 8.53333 1.19995C8.53333 1.0755 8.48 0.959947 8.37333 0.85328L8.26667 0.746614C7.80445 0.284391 7.24445 0.0355024 6.58667 -5.34058e-05C5.92889 -0.0356083 5.35111 0.142169 4.85333 0.53328C4.42667 0.284391 3.96444 0.186614 3.46667 0.239947C2.96889 0.293281 2.54222 0.497725 2.18667 0.85328C1.76 1.27995 1.54667 1.7955 1.54667 2.39995V6.71995H1.38667C0.995556 6.71995 0.666667 6.85328 0.4 7.11995C0.133333 7.38661 0 7.7155 0 8.10662C0 8.42661 0.0888889 8.70217 0.266667 8.93328C0.444444 9.16439 0.657778 9.33328 0.906667 9.43995V10.4533C0.906667 11.3066 1.13778 12.0888 1.6 12.7999C2.06222 13.5111 2.64889 14.0622 3.36 14.4533L2.93333 15.3066C2.86222 15.4488 2.85333 15.5733 2.90667 15.6799C2.96 15.7866 3.04 15.8755 3.14667 15.9466C3.25333 16.0177 3.36889 16.0266 3.49333 15.9733C3.61778 15.9199 3.71556 15.8399 3.78667 15.7333L4.26667 14.7733C4.62222 14.8444 4.99556 14.8799 5.38667 14.8799H10.6133C11.0044 14.8799 11.3778 14.8444 11.7333 14.7733L12.2133 15.7333C12.2844 15.8399 12.3822 15.9199 12.5067 15.9733C12.6311 16.0266 12.7467 16.0177 12.8533 15.9466C12.96 15.8755 13.04 15.7866 13.0933 15.6799C13.1467 15.5733 13.1378 15.4488 13.0667 15.3066L12.64 14.4533C13.3511 14.0622 13.9378 13.5111 14.4 12.7999C14.8622 12.0888 15.0933 11.3066 15.0933 10.4533V9.43995C15.3422 9.33328 15.5556 9.16439 15.7333 8.93328C15.9111 8.70217 16 8.42661 16 8.10662ZM7.36 1.22661L5.06667 3.57328C4.81778 3.21772 4.71111 2.84439 4.74667 2.45328C4.78222 2.06217 4.94222 1.72439 5.22667 1.43995C5.51111 1.1555 5.85778 0.995502 6.26667 0.959947C6.67556 0.924392 7.04 1.01328 7.36 1.22661ZM1.38667 7.67995H14.6133C14.72 7.67995 14.8178 7.72439 14.9067 7.81328C14.9956 7.90217 15.04 8.00884 15.04 8.13328C15.04 8.25773 14.9956 8.36439 14.9067 8.45328C14.8178 8.54217 14.72 8.58662 14.6133 8.58662H1.38667C1.28 8.58662 1.18222 8.54217 1.09333 8.45328C1.00444 8.36439 0.96 8.25773 0.96 8.13328C0.96 8.00884 1.00444 7.90217 1.09333 7.81328C1.18222 7.72439 1.28 7.67995 1.38667 7.67995ZM14.1333 10.4533C14.1333 11.0933 13.9733 11.6799 13.6533 12.2133C13.3333 12.7466 12.9067 13.1733 12.3733 13.4933C11.84 13.8133 11.2533 13.9733 10.6133 13.9733H5.38667C4.74667 13.9733 4.16 13.8133 3.62667 13.4933C3.09333 13.1733 2.66667 12.7466 2.34667 12.2133C2.02667 11.6799 1.86667 11.0933 1.86667 10.4533V9.54661H14.1333V10.4533ZM6.77333 4.74661C6.77333 4.88884 6.81778 5.00439 6.90667 5.09328C6.99556 5.18217 7.10222 5.22661 7.22667 5.22661C7.35111 5.22661 7.45778 5.18217 7.54667 5.09328C7.63556 5.00439 7.68 4.88884 7.68 4.74661C7.68 4.60439 7.63556 4.48884 7.54667 4.39995C7.45778 4.31106 7.35111 4.26661 7.22667 4.26661C7.10222 4.26661 6.99556 4.31106 6.90667 4.39995C6.81778 4.48884 6.77333 4.60439 6.77333 4.74661ZM8.10667 3.41328C8.10667 3.5555 8.15111 3.67106 8.24 3.75995C8.32889 3.84884 8.43556 3.89328 8.56 3.89328C8.68445 3.89328 8.79111 3.84884 8.88 3.75995C8.96889 3.67106 9.01333 3.5555 9.01333 3.41328C9.01333 3.27106 8.96889 3.1555 8.88 3.06661C8.79111 2.97773 8.68445 2.93328 8.56 2.93328C8.43556 2.93328 8.32889 2.97773 8.24 3.06661C8.15111 3.1555 8.10667 3.27106 8.10667 3.41328ZM8.42667 5.06661C8.42667 5.17328 8.47111 5.27995 8.56 5.38661C8.64889 5.49328 8.75556 5.54661 8.88 5.54661C9.00445 5.54661 9.11111 5.49328 9.2 5.38661C9.28889 5.27995 9.33333 5.16439 9.33333 5.03995C9.33333 4.9155 9.28889 4.80884 9.2 4.71995C9.11111 4.63106 9.00445 4.58661 8.88 4.58661C8.75556 4.58661 8.64889 4.63106 8.56 4.71995C8.47111 4.80884 8.42667 4.92439 8.42667 5.06661Z" fill="#FA7652"/>
</g>
<defs>
<clipPath id="clip0_7_2701">
<rect width="16" height="16" fill="white" transform="matrix(1 0 0 -1 0 16)"/>
</clipPath>
</defs>
</svg>
