<svg width="18" height="21" viewBox="0 0 18 21" fill="none" xmlns="http://www.w3.org/2000/svg">
<path d="M15.1335 2.62342C14.2891 1.82342 13.3446 1.2012 12.3002 0.756754C11.2557 0.312309 10.1557 0.090086 9.00016 0.090086C7.84461 0.090086 6.7335 0.312309 5.66683 0.756754C4.60016 1.2012 3.66683 1.82342 2.86683 2.62342C2.06683 3.42342 1.44461 4.35675 1.00016 5.42342C0.555718 6.49009 0.333496 7.6012 0.333496 8.75675C0.333496 9.91231 0.555718 11.0123 1.00016 12.0568C1.44461 13.1012 2.06683 14.0456 2.86683 14.8901L7.46683 19.4901C7.86683 19.8901 8.36683 20.0901 8.96683 20.0901C9.56683 20.0901 10.0891 19.8901 10.5335 19.4901L15.1335 14.8901C15.9335 14.0456 16.5557 13.1012 17.0002 12.0568C17.4446 11.0123 17.6668 9.91231 17.6668 8.75675C17.6668 7.6012 17.4446 6.49009 17.0002 5.42342C16.5557 4.35675 15.9335 3.42342 15.1335 2.62342ZM14.2668 14.0234L9.66683 18.6234C9.48905 18.8012 9.26683 18.8901 9.00016 18.8901C8.7335 18.8901 8.48905 18.8012 8.26683 18.6234L3.66683 14.0234C2.95572 13.3123 2.42239 12.5012 2.06683 11.5901C1.71127 10.679 1.5335 9.72342 1.5335 8.72342C1.5335 7.72342 1.71127 6.76787 2.06683 5.85675C2.42239 4.94564 2.95572 4.14564 3.66683 3.45675C4.37794 2.76786 5.18905 2.23453 6.10016 1.85675C7.01127 1.47898 7.96683 1.29009 8.96683 1.29009C9.96683 1.29009 10.9224 1.47898 11.8335 1.85675C12.7446 2.23453 13.5557 2.75675 14.2668 3.42342C15.2446 4.4012 15.9002 5.53453 16.2335 6.82342C16.5668 8.11231 16.5668 9.4012 16.2335 10.6901C15.9002 11.979 15.2446 13.0901 14.2668 14.0234ZM9.00016 5.62342C8.15572 5.62342 7.42239 5.93453 6.80016 6.55675C6.17794 7.17898 5.86683 7.91231 5.86683 8.75675C5.86683 9.6012 6.17794 10.3234 6.80016 10.9234C7.42239 11.5234 8.15572 11.8234 9.00016 11.8234C9.84461 11.8234 10.5668 11.5234 11.1668 10.9234C11.7668 10.3234 12.0668 9.6012 12.0668 8.75675C12.0668 7.91231 11.7668 7.17898 11.1668 6.55675C10.5668 5.93453 9.84461 5.62342 9.00016 5.62342ZM9.00016 10.6901C8.46683 10.6901 8.01127 10.5012 7.6335 10.1234C7.25572 9.74564 7.06683 9.29009 7.06683 8.75675C7.06683 8.22342 7.25572 7.76787 7.6335 7.39009C8.01127 7.01231 8.46683 6.82342 9.00016 6.82342C9.5335 6.82342 9.98905 7.01231 10.3668 7.39009C10.7446 7.76787 10.9335 8.22342 10.9335 8.75675C10.9335 9.29009 10.7446 9.74564 10.3668 10.1234C9.98905 10.5012 9.5335 10.6901 9.00016 10.6901Z" fill="#1A1A1A"/>
</svg>
