<svg width="21" height="20" viewBox="0 0 21 20" fill="none" xmlns="http://www.w3.org/2000/svg">
<path d="M19.2233 1.20008C18.5877 0.564529 17.8299 0.246752 16.9499 0.246752H3.89659C3.01659 0.246752 2.25881 0.564529 1.62326 1.20008C0.9877 1.83564 0.669922 2.59342 0.669922 3.47342V17.7734C0.669922 18.2134 0.779922 18.5923 0.999922 18.9101C1.21992 19.2279 1.51326 19.4601 1.87992 19.6068C2.24659 19.7534 2.62548 19.7901 3.01659 19.7168C3.4077 19.6434 3.72548 19.4601 3.96992 19.1668L6.53659 16.6001H16.9499C17.8299 16.6001 18.5877 16.2823 19.2233 15.6468C19.8588 15.0112 20.1766 14.2534 20.1766 13.3734V3.47342C20.1766 2.59342 19.8588 1.83564 19.2233 1.20008ZM18.9299 13.3734C18.9299 13.9112 18.7344 14.3634 18.3433 14.7301C17.9521 15.0968 17.4877 15.2801 16.9499 15.2801H6.24326C6.09659 15.2801 5.94992 15.3534 5.80326 15.5001L3.08992 18.2868C2.89437 18.4823 2.66214 18.519 2.39326 18.3968C2.12437 18.2745 1.98992 18.0912 1.98992 17.8468V3.47342C1.98992 2.93564 2.17326 2.48342 2.53992 2.11675C2.90659 1.75009 3.35881 1.56675 3.89659 1.56675H16.9499C17.4877 1.56675 17.9521 1.75009 18.3433 2.11675C18.7344 2.48342 18.9299 2.93564 18.9299 3.47342V13.3734ZM10.0566 3.62008L4.84992 6.84675L5.50992 7.94675L6.46325 7.36009V10.6601C6.46325 11.1979 6.65881 11.6623 7.04992 12.0534C7.44103 12.4445 7.90548 12.6401 8.44325 12.6401H12.3299C12.8677 12.6401 13.3321 12.4445 13.7233 12.0534C14.1144 11.6623 14.3099 11.1979 14.3099 10.6601V7.36009L15.2633 7.94675L15.9966 6.84675L10.7899 3.62008C10.5455 3.47342 10.301 3.47342 10.0566 3.62008ZM13.0633 10.6601C13.0144 10.8556 12.9288 11.0145 12.8066 11.1368C12.6844 11.259 12.5499 11.3201 12.4033 11.3201H8.44325C8.29659 11.3201 8.14992 11.259 8.00325 11.1368C7.85659 11.0145 7.78326 10.8556 7.78326 10.6601V6.55342L10.4233 4.94009L13.0633 6.55342V10.6601Z" fill="#181A20"/>
</svg>
