<svg width="23" height="22" viewBox="0 0 23 22" fill="none" xmlns="http://www.w3.org/2000/svg">
<g clip-path="url(#clip0_37_398)">
<path d="M19.3399 6.82009L16.4799 5.35342V3.15342C16.4799 2.61564 16.2843 2.16342 15.8932 1.79675C15.5021 1.43009 15.0376 1.24675 14.4999 1.24675H6.72653C6.18875 1.24675 5.72431 1.43009 5.3332 1.79675C4.94209 2.16342 4.74653 2.61564 4.74653 3.15342V5.35342L1.88653 6.82009C1.5932 6.96675 1.34875 7.19897 1.1532 7.51675C0.957641 7.83453 0.859863 8.18897 0.859863 8.58008V20.0934C0.859863 20.289 0.920974 20.4479 1.0432 20.5701C1.16542 20.6923 1.32431 20.7534 1.51986 20.7534H19.7065C19.9021 20.7534 20.061 20.6923 20.1832 20.5701C20.3054 20.4479 20.3665 20.289 20.3665 20.0934V8.58008C20.3665 8.18897 20.2688 7.83453 20.0732 7.51675C19.8776 7.19897 19.6332 6.96675 19.3399 6.82009ZM4.74653 19.5068H2.10653V8.58008C2.10653 8.28675 2.22875 8.06675 2.4732 7.92008L4.74653 6.82009V19.5068ZM12.5932 19.5068H8.6332V16.8668H12.5932V19.5068ZM15.1599 19.5068H13.8399V16.2068C13.8399 16.0112 13.7788 15.8523 13.6565 15.7301C13.5343 15.6079 13.3999 15.5468 13.2532 15.5468H7.9732C7.82653 15.5468 7.67986 15.6079 7.5332 15.7301C7.38653 15.8523 7.3132 16.0112 7.3132 16.2068V19.4334H6.06653V3.15342C6.06653 3.00675 6.12764 2.86008 6.24986 2.71342C6.37209 2.56675 6.53097 2.49342 6.72653 2.49342H14.4999C14.6954 2.49342 14.8543 2.56675 14.9765 2.71342C15.0988 2.86008 15.1599 3.00675 15.1599 3.15342V19.5068ZM19.1199 19.5068H16.4799V6.82009L18.7532 7.92008C18.9976 8.06675 19.1199 8.28675 19.1199 8.58008V19.5068ZM11.2732 11.6601H13.9132V12.9801H11.2732V11.6601ZM7.38653 11.6601H9.9532V12.9801H7.38653V11.6601ZM11.2732 9.02009H13.9132V10.3401H11.2732V9.02009ZM7.38653 9.02009H9.9532V10.3401H7.38653V9.02009ZM11.2732 6.45342H13.9132V7.70008H11.2732V6.45342ZM7.38653 6.45342H9.9532V7.70008H7.38653V6.45342ZM11.2732 3.81342H13.9132V5.13342H11.2732V3.81342ZM7.38653 3.81342H9.9532V5.13342H7.38653V3.81342Z" fill="#181A20"/>
</g>
<defs>
<clipPath id="clip0_37_398">
<rect width="22" height="22" fill="white" transform="matrix(1 0 0 -1 0.859863 22)"/>
</clipPath>
</defs>
</svg>
