<svg width="52" height="54" viewBox="0 0 52 54" fill="none" xmlns="http://www.w3.org/2000/svg">
<path d="M25.9905 53.3999C25.1905 53.3999 24.4572 53.1999 23.7905 52.7999L14.9905 47.5999C11.2572 45.4666 8.22387 42.5332 5.89054 38.7999C3.5572 35.0666 2.19054 31.0666 1.79054 26.7999L0.590537 11.7999C0.457204 10.7332 0.657204 9.76657 1.19054 8.8999C1.72387 8.03323 2.4572 7.46657 3.39054 7.1999C4.8572 6.7999 6.19054 6.1999 7.39054 5.3999C8.8572 4.46657 10.1905 3.26657 11.3905 1.7999C12.1905 0.733234 13.3239 0.199902 14.7905 0.199902H37.1905C38.6572 0.199902 39.7905 0.733234 40.5905 1.7999C41.7905 3.26657 43.1239 4.46657 44.5905 5.3999C45.7905 6.1999 47.1239 6.7999 48.5905 7.1999C49.5239 7.46657 50.2572 8.03323 50.7905 8.8999C51.3239 9.76657 51.5905 10.6666 51.5905 11.5999L50.1905 26.5999C49.9239 30.9999 48.6239 35.0332 46.2905 38.6999C43.9572 42.3666 40.9239 45.3332 37.1905 47.5999L28.3905 52.7999C27.5905 53.1999 26.7905 53.3999 25.9905 53.3999ZM14.7905 3.7999C14.5239 3.7999 14.3239 3.86657 14.1905 3.9999C12.8572 5.73323 11.3239 7.26657 9.59054 8.5999C8.12387 9.53323 6.52387 10.1999 4.79054 10.5999C4.39054 10.7332 4.19054 10.9999 4.19054 11.3999L5.59054 26.3999C5.8572 30.1332 6.99054 33.5999 8.99054 36.7999C10.9905 39.9999 13.5905 42.5332 16.7905 44.3999L25.5905 49.5999C25.8572 49.7332 26.1239 49.7332 26.3905 49.5999L35.1905 44.3999C38.3905 42.5332 40.9905 40.0332 42.9905 36.8999C44.9905 33.7666 46.1239 30.2666 46.3905 26.3999L47.7905 11.3999C47.7905 11.1332 47.5905 10.9332 47.1905 10.7999C45.4572 10.3999 43.8572 9.66657 42.3905 8.5999C40.6572 7.3999 39.1239 5.93324 37.7905 4.1999C37.6572 4.06657 37.4572 3.9999 37.1905 3.9999L14.7905 3.7999ZM24.1905 32.5999C23.6572 32.5999 23.1905 32.3999 22.7905 31.9999L17.7905 26.9999C17.5239 26.7332 17.4239 26.3666 17.4905 25.8999C17.5572 25.4332 17.7572 25.0332 18.0905 24.6999C18.4239 24.3666 18.7905 24.1666 19.1905 24.0999C19.5905 24.0332 19.9905 24.1332 20.3905 24.3999L24.1905 28.1999L32.7905 19.3999C33.1905 19.2666 33.5905 19.1999 33.9905 19.1999C34.3905 19.1999 34.7572 19.3666 35.0905 19.6999C35.4239 20.0332 35.6239 20.3999 35.6905 20.7999C35.7572 21.1999 35.6572 21.5999 35.3905 21.9999L25.3905 31.9999C25.1239 32.3999 24.7239 32.5999 24.1905 32.5999Z" fill="#40A09A"/>
</svg>
